<?xml version="1.0" encoding="UTF-8"?>
<svg width="108px" height="108px" viewBox="0 0 108 108" version="1.1" xmlns="http://www.w3.org/2000/svg" xmlns:xlink="http://www.w3.org/1999/xlink">
    <title>ic_foreground</title>
    <defs>
        <linearGradient x1="23.779811%" y1="26.9206887%" x2="100%" y2="79.9362036%" id="linearGradient-1">
            <stop stop-color="#000000" stop-opacity="0.15" offset="0%"></stop>
            <stop stop-color="#000000" stop-opacity="0.15" offset="14.1511132%"></stop>
            <stop stop-color="#000000" stop-opacity="0.02" offset="64.3401548%"></stop>
            <stop stop-color="#000000" stop-opacity="0" offset="100%"></stop>
        </linearGradient>
    </defs>
    <g stroke="none" stroke-width="1" fill="none" fill-rule="evenodd">
        <polygon fill="url(#linearGradient-1)" points="32 64 70.5233588 57.5 70.5233588 49.1932806 108 87.3099976 108 108 75.9655127 108"></polygon>
        <path d="M69.1066667,38.5571429 C69.84,37.8142857 70.9766667,37.8142857 71.71,38.5571429 C72.4433333,39.3 72.4433333,40.4514286 71.71,41.1942857 L71.71,41.1942857 L66.9433333,46.0228571 C72.4433333,50.0714286 76,56.6085714 76,64 L76,64 L32,64 C32,56.6085714 35.5566667,50.1085714 40.9833333,46.06 L40.9833333,46.06 L36.18,41.1942857 C35.4466667,40.4514286 35.4466667,39.3 36.18,38.5571429 C36.9133333,37.8142857 38.05,37.8142857 38.7833333,38.5571429 L38.7833333,38.5571429 L44.2466667,44.0542857 C47.18,42.5685714 50.48,41.7142857 54,41.7142857 C57.4833333,41.7142857 60.7833333,42.5685714 63.68,44.0542857 L63.68,44.0542857 Z M62.9375,52.8530702 C61.7984127,52.8530702 60.875,53.7624918 60.875,54.8843202 C60.875,56.0061486 61.7984127,56.9155702 62.9375,56.9155702 C64.0765873,56.9155702 65,56.0061486 65,54.8843202 C65,53.7624918 64.0765873,52.8530702 62.9375,52.8530702 Z M45.0625,52.8530702 C43.9234127,52.8530702 43,53.7624918 43,54.8843202 C43,56.0061486 43.9234127,56.9155702 45.0625,56.9155702 C46.2015873,56.9155702 47.125,56.0061486 47.125,54.8843202 C47.125,53.7624918 46.2015873,52.8530702 45.0625,52.8530702 Z" fill="#FFFFFF" fill-rule="nonzero"></path>
    </g>
</svg>